<?xml version="1.0" encoding="UTF-8"?>
<svg width="38px" height="38px" viewBox="0 0 38 38" version="1.1" xmlns="http://www.w3.org/2000/svg" xmlns:xlink="http://www.w3.org/1999/xlink">
    <title>ic_file_fail</title>
    <g id="Upgrade-Firmware" stroke="none" stroke-width="1" fill="none" fill-rule="evenodd">
        <g id="离线升级_05" transform="translate(-320.000000, -488.000000)">
            <g id="ic_file_fail" transform="translate(320.000000, 488.000000)">
                <circle id="Oval" fill="#FFFFFF" cx="19" cy="19" r="19"></circle>
                <path d="M28.3386034,27.9444444 L10.6613966,27.9444444 C10.2961379,27.9444444 10,27.6357255 10,27.2549493 L10,16.3333333 L29,16.3333333 L29,27.2549493 C29,27.6357255 28.7038621,27.9444444 28.3386034,27.9444444 Z" id="Path" fill="#EFCE4A" fill-rule="nonzero"></path>
                <path d="M18.5234655,12.9803922 L18.5234655,10.7521765 C18.5234655,10.3367843 18.2273276,10 17.862069,10 L10.6613966,10 C10.2961379,10 10,10.3367843 10,10.7521765 L10,12.6078431 L10,16.3333333 L29,16.3333333 L29,13.7325686 C29,13.3171765 28.7038621,12.9803922 28.3386034,12.9803922 L18.5234655,12.9803922 Z" id="Path" fill="#EBBA16" fill-rule="nonzero"></path>
                <g id="Group" transform="translate(21.000000, 19.000000)">
                    <path d="M6,0 C2.6859375,0 0,2.6859375 0,6 C0,9.3140625 2.6859375,12 6,12 C9.3140625,12 12,9.3140625 12,6 C12,2.6859375 9.3140625,0 6,0 L6,0 Z" id="Path" stroke="#FFFFFF" stroke-width="2" fill="#FF000D"></path>
                    <path d="M8.82421875,8.24179688 C8.971875,8.38710938 8.97421875,8.62382813 8.83007812,8.77265625 L8.83007812,8.77265625 C8.68476562,8.9203125 8.44804687,8.92265625 8.29921875,8.77851563 L6,6.525 L3.70078125,8.77734375 C3.553125,8.92265625 3.31523437,8.9203125 3.16992187,8.77148438 L3.16992187,8.77148438 C3.02460937,8.62382813 3.02695312,8.3859375 3.17578125,8.240625 L5.46445312,6 L3.17578125,3.75820313 C3.028125,3.61289063 3.02578125,3.37617188 3.16992187,3.22734375 L3.16992187,3.22734375 C3.31523437,3.0796875 3.55195312,3.07734375 3.70078125,3.22148438 L6,5.475 L8.29921875,3.22265625 C8.446875,3.07734375 8.68476562,3.0796875 8.83007812,3.22851563 L8.83007812,3.22851563 C8.97539062,3.37617188 8.97304687,3.6140625 8.82421875,3.759375 L6.53554687,6 L8.82421875,8.24179688 L8.82421875,8.24179688 Z" id="Path" fill="#FFFFFF"></path>
                </g>
            </g>
        </g>
    </g>
</svg>